<svg width="1440" height="36" viewBox="0 0 1440 36" xmlns="http://www.w3.org/2000/svg" xmlns:xlink="http://www.w3.org/1999/xlink"><title>appnav</title><defs><rect id="a" y="3" width="16" height="16" rx="2"/><mask id="b" x="0" y="0" width="16" height="16" fill="#fff"><use xlink:href="#a"/></mask></defs><g fill="none" fill-rule="evenodd"><path fill="#802ABE" d="M0 0h1440v36H0z"/><path d="M392.749 17.002v-4.628a.374.374 0 0 0-.375-.374h-.748a.374.374 0 0 0-.375.374v4.628a.25.25 0 0 1-.25.25h-4.627a.374.374 0 0 0-.374.374v.748c0 .207.168.375.374.375h4.628a.25.25 0 0 1 .25.25v4.627c0 .206.167.374.374.374h.748a.374.374 0 0 0 .375-.374v-4.628a.25.25 0 0 1 .25-.25h4.627a.374.374 0 0 0 .374-.374v-.748a.374.374 0 0 0-.374-.375h-4.628a.25.25 0 0 1-.25-.25" fill="#FFF"/><path fill-opacity=".2" fill="#000" d="M408 0h134v36H408z"/><text font-family="SalesforceSans-Regular, Salesforce Sans" font-size="12" fill="#FFF" transform="translate(408)"><tspan x="38" y="22">00014723</tspan></text><g transform="translate(419 7)"><use stroke="#FFF" mask="url(#b)" stroke-width="2" opacity=".521" xlink:href="#a"/><text opacity=".596" font-family="SSStandard, SS Standard" font-size="6" fill="#FFF"><tspan x="5" y="6">descend</tspan></text></g><path d="M524.486 20.18c-.106.106-.247.106-.353 0l-1.947-1.947c-.089-.089-.266-.09-.354 0l-1.944 1.943c-.088.088-.265.088-.353 0l-.708-.709c-.106-.106-.107-.247 0-.353l1.943-1.944c.106-.106.106-.247 0-.353l-1.947-1.948c-.107-.106-.107-.247 0-.353l.706-.707c.088-.088.265-.088.354 0l1.947 1.947c.106.107.247.107.353 0l1.944-1.943c.088-.088.265-.088.354 0l.708.709a.25.25 0 0 1 0 .353l-1.944 1.944c-.106.106-.105.247 0 .353l1.948 1.948c.088.088.089.265 0 .353l-.707.707zM528.02 17a6.067 6.067 0 0 0-6.018-6.018 6.04 6.04 0 0 0-6.007 6.007c.003 3.325 2.694 6.015 6 6A6.017 6.017 0 0 0 528.02 17z" fill="#FFF" opacity=".44"/><path fill="#16325C" opacity=".25" d="M542 0h1v36h-1z"/><path d="M542 0h134v36H542z"/><text font-family="SalesforceSans-Regular, Salesforce Sans" font-size="12" fill="#FFF" transform="translate(542)"><tspan x="38" y="22">00023118</tspan></text><g fill="#FFF"><path d="M560.964 14.688h.606c.083 0 .151-.076.151-.17v-.506h2.12v.507c0 .093.068.169.152.169h.606c.083 0 .151-.076.151-.17v-.506c0-.558-.407-1.012-.909-1.012h-2.12c-.502 0-.909.454-.909 1.013v.506c0 .093.068.169.152.169M558.9 15.25a.91.91 0 0 0-.9.92v4.91c0 .507.403.92.9.92h7.2a.91.91 0 0 0 .9-.92v-4.91a.91.91 0 0 0-.9-.92h-7.2z"/></g><path d="M658.486 20.18c-.106.106-.247.106-.353 0l-1.947-1.947c-.089-.089-.266-.09-.354 0l-1.944 1.943c-.088.088-.265.088-.353 0l-.708-.709c-.106-.106-.107-.247 0-.353l1.943-1.944c.106-.106.106-.247 0-.353l-1.947-1.948c-.107-.106-.107-.247 0-.353l.706-.707c.088-.088.265-.088.354 0l1.947 1.947c.106.107.247.107.353 0l1.944-1.943c.088-.088.265-.088.354 0l.708.709a.25.25 0 0 1 0 .353l-1.944 1.944c-.106.106-.105.247 0 .353l1.948 1.948c.088.088.089.265 0 .353l-.707.707zM662.02 17a6.067 6.067 0 0 0-6.018-6.018 6.04 6.04 0 0 0-6.007 6.007c.003 3.325 2.694 6.015 6 6A6.017 6.017 0 0 0 662.02 17z" fill="#FFF" opacity=".44"/><path fill="#16325C" opacity=".25" d="M676 0h1v36h-1z"/><g><path d="M678 0h134v36H678z"/><text font-family="SalesforceSans-Regular, Salesforce Sans" font-size="12" fill="#FFF" transform="translate(678)"><tspan x="38" y="22">00008251</tspan></text><g fill="#FFF"><path d="M696.964 14.688h.606c.083 0 .151-.076.151-.17v-.506h2.12v.507c0 .093.068.169.152.169h.606c.083 0 .151-.076.151-.17v-.506c0-.558-.407-1.012-.909-1.012h-2.12c-.502 0-.909.454-.909 1.013v.506c0 .093.068.169.152.169M694.9 15.25a.91.91 0 0 0-.9.92v4.91c0 .507.403.92.9.92h7.2a.91.91 0 0 0 .9-.92v-4.91a.91.91 0 0 0-.9-.92h-7.2z"/></g><path d="M794.486 20.18c-.106.106-.247.106-.353 0l-1.947-1.947c-.089-.089-.266-.09-.354 0l-1.944 1.943c-.088.088-.265.088-.353 0l-.708-.709c-.106-.106-.107-.247 0-.353l1.943-1.944c.106-.106.106-.247 0-.353l-1.947-1.948c-.107-.106-.107-.247 0-.353l.706-.707c.088-.088.265-.088.354 0l1.947 1.947c.106.107.247.107.353 0l1.944-1.943c.088-.088.265-.088.354 0l.708.709a.25.25 0 0 1 0 .353l-1.944 1.944c-.106.106-.105.247 0 .353l1.948 1.948c.088.088.089.265 0 .353l-.707.707zM798.02 17a6.067 6.067 0 0 0-6.018-6.018 6.04 6.04 0 0 0-6.007 6.007c.003 3.325 2.694 6.015 6 6A6.017 6.017 0 0 0 798.02 17z" fill="#FFF" opacity=".44"/><path fill="#16325C" opacity=".25" d="M812 0h1v36h-1z"/></g><g><path d="M813 0h134v36H813z"/><text font-family="SalesforceSans-Regular, Salesforce Sans" font-size="12" fill="#FFF" transform="translate(813)"><tspan x="38" y="22">00984422</tspan></text><g fill="#FFF"><path d="M831.964 14.688h.606c.083 0 .151-.076.151-.17v-.506h2.12v.507c0 .093.068.169.152.169h.606c.083 0 .151-.076.151-.17v-.506c0-.558-.407-1.012-.909-1.012h-2.12c-.502 0-.909.454-.909 1.013v.506c0 .093.068.169.152.169M829.9 15.25a.91.91 0 0 0-.9.92v4.91c0 .507.403.92.9.92h7.2a.91.91 0 0 0 .9-.92v-4.91a.91.91 0 0 0-.9-.92h-7.2z"/></g><path d="M929.486 20.18c-.106.106-.247.106-.353 0l-1.947-1.947c-.089-.089-.266-.09-.354 0l-1.944 1.943c-.088.088-.265.088-.353 0l-.708-.709c-.106-.106-.107-.247 0-.353l1.943-1.944c.106-.106.106-.247 0-.353l-1.947-1.948c-.107-.106-.107-.247 0-.353l.706-.707c.088-.088.265-.088.354 0l1.947 1.947c.106.107.247.107.353 0l1.944-1.943c.088-.088.265-.088.354 0l.708.709a.25.25 0 0 1 0 .353l-1.944 1.944c-.106.106-.105.247 0 .353l1.948 1.948c.088.088.089.265 0 .353l-.707.707zM933.02 17a6.067 6.067 0 0 0-6.018-6.018 6.04 6.04 0 0 0-6.007 6.007c.003 3.325 2.694 6.015 6 6A6.017 6.017 0 0 0 933.02 17z" fill="#FFF" opacity=".44"/><path fill="#16325C" opacity=".25" d="M947 0h1v36h-1z"/></g><g fill="#FFF"><path d="M334-1v38"/><text font-family="SalesforceSans-Regular, Salesforce Sans" font-size="14" transform="translate(218 -1)"><tspan x="0" y="24">Cases</tspan></text><text font-family="SSStandard, SS Standard" font-size="8" transform="translate(218 -1)"><tspan x="135" y="19">descend</tspan></text></g><path fill="#16325C" opacity=".25" d="M373 0h1v36h-1zM198 0h1v36h-1zM340 0h1v36h-1z"/><g font-size="14" font-family="SalesforceSans-Regular, Salesforce Sans" fill="#FFF"><text transform="translate(51 9)"><tspan x="0" y="14">Service Desk</tspan></text></g><g fill="#FFF"><path d="M24 10.333v3.334c0 .185.148.333.333.333h3.334a.332.332 0 0 0 .333-.333v-3.334a.332.332 0 0 0-.333-.333h-3.334a.332.332 0 0 0-.333.333zm6 0v3.334c0 .185.148.333.333.333h3.334a.332.332 0 0 0 .333-.333v-3.334a.332.332 0 0 0-.333-.333h-3.334a.332.332 0 0 0-.333.333zm6 0v3.334c0 .185.148.333.333.333h3.334a.332.332 0 0 0 .333-.333v-3.334a.332.332 0 0 0-.333-.333h-3.334a.332.332 0 0 0-.333.333zm-12 6v3.334c0 .185.148.333.333.333h3.334a.332.332 0 0 0 .333-.333v-3.334a.332.332 0 0 0-.333-.333h-3.334a.332.332 0 0 0-.333.333zm6 0v3.334c0 .185.148.333.333.333h3.334a.332.332 0 0 0 .333-.333v-3.334a.332.332 0 0 0-.333-.333h-3.334a.332.332 0 0 0-.333.333zm6 0v3.334c0 .185.148.333.333.333h3.334a.332.332 0 0 0 .333-.333v-3.334a.332.332 0 0 0-.333-.333h-3.334a.332.332 0 0 0-.333.333zm-12 6v3.334c0 .185.148.333.333.333h3.334a.332.332 0 0 0 .333-.333v-3.334a.332.332 0 0 0-.333-.333h-3.334a.332.332 0 0 0-.333.333zm6 0v3.334c0 .185.148.333.333.333h3.334a.332.332 0 0 0 .333-.333v-3.334a.332.332 0 0 0-.333-.333h-3.334a.332.332 0 0 0-.333.333zm6 0v3.334c0 .185.148.333.333.333h3.334a.332.332 0 0 0 .333-.333v-3.334a.332.332 0 0 0-.333-.333h-3.334a.332.332 0 0 0-.333.333z"/></g><path d="M1392 24c0 1.1-.9 2-2 2s-2-.9-2-2 .9-2 2-2 2 .9 2 2m0-6c0 1.1-.9 2-2 2s-2-.9-2-2 .9-2 2-2 2 .9 2 2m0-6c0 1.1-.9 2-2 2s-2-.9-2-2 .9-2 2-2 2 .9 2 2" fill="#FFF"/></g></svg>