<svg width="17" height="17" viewBox="0 0 17 17" xmlns="http://www.w3.org/2000/svg"><title>Shape</title><path d="M10.718 8.29l5.637-5.68c.26-.26.26-.65 0-.91l-.867-.912a.629.629 0 0 0-.91 0l-5.681 5.68a.42.42 0 0 1-.607 0L2.61.746a.629.629 0 0 0-.91 0l-.912.91c-.26.26-.26.651 0 .911l5.68 5.68a.42.42 0 0 1 0 .608L.746 14.577c-.26.26-.26.65 0 .91l.91.911c.26.26.651.26.911 0l5.68-5.68a.42.42 0 0 1 .608 0l5.68 5.68c.26.26.65.26.91 0l.91-.91c.261-.26.261-.65 0-.91l-5.636-5.681a.42.42 0 0 1 0-.607z" fill="#FFF" fill-rule="evenodd"/></svg>