<svg width="20" height="20" viewBox="0 0 20 20" xmlns="http://www.w3.org/2000/svg"><title>Group</title><g fill="none" fill-rule="evenodd"><circle fill="#9FAAB6" cx="10" cy="10" r="10"/><path d="M11.104 10.792h5.143a.48.48 0 0 0 .467-.467V9.39a.48.48 0 0 0-.467-.468h-5.143c-.187 0-.312-.125-.312-.312V3.468A.48.48 0 0 0 10.325 3H9.39a.48.48 0 0 0-.468.468V8.61c0 .187-.125.312-.312.312H3.468A.48.48 0 0 0 3 9.39v.935c0 .249.218.467.468.467H8.61c.187 0 .312.125.312.312v5.143c0 .25.218.467.468.467h.935a.48.48 0 0 0 .467-.467v-5.143c0-.187.125-.312.312-.312z" fill="#FFF"/></g></svg>