<svg width="20" height="20" viewBox="0 0 20 20" xmlns="http://www.w3.org/2000/svg"><title>Group 2</title><g fill="none" fill-rule="evenodd"><circle fill="#9FAAB6" cx="10" cy="10" r="10"/><path d="M10.42 3.322l1.343 4.087c.058.175.233.263.408.263h4.38c.438 0 .613.584.263.846l-3.562 2.628c-.146.117-.205.321-.146.496l1.401 4.205c.117.408-.321.759-.671.496l-3.533-2.57c-.146-.116-.35-.116-.526 0l-3.562 2.57a.435.435 0 0 1-.671-.496l1.343-4.205a.46.46 0 0 0-.146-.496L3.179 8.518c-.35-.262-.146-.846.263-.846h4.38c.204 0 .35-.059.408-.263l1.372-4.117c.117-.408.7-.38.818.03z" fill="#FFF"/></g></svg>