<svg width="20" height="20" viewBox="0 0 20 20" xmlns="http://www.w3.org/2000/svg"><title>Group 3</title><g fill="none" fill-rule="evenodd"><circle fill="#9FAAB6" cx="10" cy="10" r="10"/><path d="M10.516 13.878H9.01a.412.412 0 0 1-.422-.422v-.452c0-1.265.814-2.41 2.019-2.832.361-.12.693-.331.964-.633 1.506-1.807.12-3.977-1.687-4.037a2.427 2.427 0 0 0-1.778.663 2.12 2.12 0 0 0-.693 1.325c-.03.181-.21.332-.452.332H5.455c-.271 0-.482-.211-.452-.482.12-1.145.633-2.17 1.446-2.983a4.935 4.935 0 0 1 3.525-1.356c2.5.09 4.55 2.14 4.64 4.64a4.828 4.828 0 0 1-3.164 4.73c-.27.12-.452.332-.452.603v.452c0 .271-.24.452-.482.452zm.482 3.163c0 .241-.21.452-.451.452H9.04a.463.463 0 0 1-.452-.452v-1.506c0-.241.211-.452.452-.452h1.507c.24 0 .451.21.451.452v1.506z" fill="#FFF"/></g></svg>