<svg width="32" height="32" viewBox="0 0 32 32" xmlns="http://www.w3.org/2000/svg"><title>Group 7</title><g fill="none" fill-rule="evenodd"><rect fill="#45C173" width="32" height="32" rx="2"/><g fill="#FFF"><path d="M16 13.09A2.912 2.912 0 0 0 13.09 16 2.912 2.912 0 0 0 16 18.91 2.913 2.913 0 0 0 18.91 16 2.913 2.913 0 0 0 16 13.09"/><path d="M26.077 18.792l-1.783-1.364a7.413 7.413 0 0 0 0-3.055l1.796-1.372c.598-.457.751-1.24.364-1.867l-.774-1.239c-.282-.448-.81-.723-1.376-.723-.19 0-.375.036-.548.097l-2.188.773a8.529 8.529 0 0 0-2.852-1.503l-.382-2.083c-.13-.71-.787-1.123-1.564-1.123h-1.54c-.776 0-1.433.414-1.563 1.126l-.38 2.029c-1.04.324-2.001.839-2.854 1.528l-2.192-.76a1.656 1.656 0 0 0-.545-.09c-.565 0-1.092.278-1.378.73l-.773 1.24c-.387.624-.232 1.41.366 1.864l1.795 1.374a7.447 7.447 0 0 0 .002 3.055L5.91 18.802c-.598.457-.752 1.241-.364 1.868l.772 1.237c.281.45.81.73 1.376.73.187 0 .37-.03.55-.092l2.188-.76a8.583 8.583 0 0 0 2.852 1.528l.382 2.131c.13.71.787 1.223 1.564 1.223h1.54c.776 0 1.433-.513 1.563-1.225l.382-2.128a8.728 8.728 0 0 0 2.969-1.625l2.075.75c.182.066.375.1.57.1.56 0 1.083-.275 1.37-.718l.732-1.145c.403-.63.252-1.422-.355-1.884zm-10.06 2.097c-2.907 0-5.274-2.193-5.274-4.889s2.367-4.889 5.275-4.889c2.908 0 5.274 2.193 5.274 4.889s-2.366 4.889-5.274 4.889z"/></g></g></svg>