<svg width="20" height="20" viewBox="0 0 20 20" xmlns="http://www.w3.org/2000/svg"><title>Shape</title><path d="M18.327 12.919h-.208a1.476 1.476 0 0 1-1.458-1.458v-4.79c0-3.79-3.165-6.831-6.997-6.664C6.08.173 3.332 3.255 3.332 6.879v4.624c0 .791-.666 1.416-1.458 1.416h-.208C.75 12.919 0 13.71 0 14.627v.625c0 .291.292.583.625.583h18.744a.64.64 0 0 0 .624-.625v-.625c0-.916-.75-1.666-1.666-1.666zm-6.29 4.582H7.957a.44.44 0 0 0-.417.5C7.747 19.167 8.79 20 9.997 20c1.208 0 2.249-.875 2.457-2a.44.44 0 0 0-.416-.5z" fill="#9FAAB6" fill-rule="evenodd"/></svg>