<svg width="16" height="16" viewBox="0 0 16 16" xmlns="http://www.w3.org/2000/svg"><title>Shape</title><path d="M15.88 14.446l-4.47-4.437a6.355 6.355 0 0 0 1.135-4.57C12.145 2.57 9.809.302 6.907.035 2.97-.365-.366 2.97.035 6.94c.267 2.87 2.535 5.238 5.404 5.638a6.355 6.355 0 0 0 4.57-1.134l4.437 4.437c.2.2.5.2.7 0l.701-.7c.2-.2.2-.534.034-.735zM2.004 6.306a4.314 4.314 0 0 1 4.303-4.303 4.314 4.314 0 0 1 4.304 4.303 4.314 4.314 0 0 1-4.304 4.304 4.293 4.293 0 0 1-4.303-4.304z" fill="#9FAAB5" fill-rule="evenodd"/></svg>