<svg width="24" height="24" viewBox="0 0 24 24" xmlns="http://www.w3.org/2000/svg"><title>setupmenu_global</title><g fill="none" fill-rule="evenodd"><rect fill="#00396B" width="24" height="24" rx="2"/><g fill="#FFF"><path d="M12 9.818A2.184 2.184 0 0 0 9.818 12c0 1.203.979 2.182 2.182 2.182A2.184 2.184 0 0 0 14.182 12 2.184 2.184 0 0 0 12 9.818"/><path d="M19.558 14.094l-1.337-1.023a5.56 5.56 0 0 0-.001-2.291l1.348-1.029c.448-.343.563-.93.272-1.4l-.58-.93c-.212-.336-.607-.542-1.032-.542-.142 0-.281.027-.411.073l-1.64.58a6.397 6.397 0 0 0-2.14-1.128l-.286-1.562C13.653 4.31 13.16 4 12.578 4h-1.155c-.583 0-1.075.31-1.173.844l-.285 1.522c-.78.243-1.5.629-2.14 1.146l-1.644-.57a1.242 1.242 0 0 0-.41-.068c-.423 0-.818.21-1.033.549l-.579.929c-.29.468-.174 1.057.274 1.398l1.347 1.03a5.585 5.585 0 0 0 0 2.292l-1.347 1.03c-.448.342-.563.93-.273 1.4l.58.928c.21.338.607.548 1.032.548.14 0 .276-.023.412-.069l1.64-.57c.64.517 1.36.903 2.14 1.146l.286 1.598c.098.533.59.917 1.173.917h1.155c.583 0 1.075-.384 1.173-.919l.286-1.595a6.546 6.546 0 0 0 2.227-1.22l1.556.564c.137.049.28.074.428.074.419 0 .812-.206 1.026-.538l.55-.859c.302-.472.19-1.066-.266-1.413zm-7.545 1.573c-2.18 0-3.955-1.645-3.955-3.667s1.774-3.667 3.955-3.667S15.97 9.978 15.97 12s-1.775 3.667-3.956 3.667z"/></g></g></svg>