<svg width="19" height="20" viewBox="0 0 19 20" xmlns="http://www.w3.org/2000/svg"><title>Group 4</title><g fill="none" fill-rule="evenodd"><path d="M17.85 12.667l-1.541-1.292a8.137 8.137 0 0 0 0-2.833L17.85 7.25c.5-.417.666-1.167.333-1.75l-.667-1.208a1.398 1.398 0 0 0-1.666-.584l-1.875.709A7.215 7.215 0 0 0 11.559 3l-.333-1.958C11.1.375 10.517 0 9.85 0H8.517c-.666 0-1.25.375-1.375 1.042L6.81 2.958C5.892 3.25 5.1 3.75 4.35 4.375l-1.834-.708c-.166-.042-.291-.084-.458-.084-.5 0-.958.25-1.208.667L.184 5.417a1.355 1.355 0 0 0 .333 1.75L2.06 8.458a8.137 8.137 0 0 0 0 2.834L.517 12.583c-.5.417-.666 1.167-.333 1.75l.667 1.25a1.398 1.398 0 0 0 1.666.584l1.875-.709a7.215 7.215 0 0 0 2.417 1.417l.333 2C7.267 19.542 7.81 20 8.517 20h1.334c.666 0 1.25-.5 1.375-1.167l.333-2a6.952 6.952 0 0 0 2.542-1.541l1.75.708c.166.042.333.083.5.083.5 0 .958-.25 1.208-.666l.625-1.084c.333-.5.167-1.25-.333-1.666zm-8.624 1.958c-2.5 0-4.542-2.042-4.542-4.583 0-2.542 2-4.584 4.542-4.584 2.541 0 4.541 2.042 4.541 4.584 0 2.541-2.041 4.583-4.541 4.583zm1.208-7.958H8.517c-.291 0-.541.166-.625.416l-1.166 3c-.084.209.083.459.333.459h1.958l-.708 2.5c-.083.25.208.375.375.208l2.958-3.458c.209-.209.042-.542-.25-.542H9.934l1.292-2.042c.125-.208-.042-.5-.292-.5h-.5v-.041z" fill="#13315D"/><path d="M10.434 6.667H8.517c-.291 0-.541.166-.625.416l-1.166 3c-.084.209.083.459.333.459h1.958l-.708 2.5c-.083.25.208.375.375.208l2.958-3.458c.209-.209.042-.542-.25-.542H9.934l1.292-2.042c.125-.208-.042-.5-.292-.5h-.5v-.041z" fill="#5EB3E7"/></g></svg>