<?xml version="1.0" encoding="UTF-8" standalone="no"?>
<svg width="1440px" height="36px" viewBox="0 0 1440 36" version="1.1" xmlns="http://www.w3.org/2000/svg" xmlns:xlink="http://www.w3.org/1999/xlink">
    <!-- Generator: Sketch 3.8.3 (29802) - http://www.bohemiancoding.com/sketch -->
    <title>appnav</title>
    <desc>Created with Sketch.</desc>
    <defs>
        <rect id="path-1" x="0" y="3" width="16" height="16" rx="2"></rect>
        <mask id="mask-2" maskContentUnits="userSpaceOnUse" maskUnits="objectBoundingBox" x="0" y="0" width="16" height="16" fill="white">
            <use xlink:href="#path-1"></use>
        </mask>
    </defs>
    <g id="Page-1" stroke="none" stroke-width="1" fill="none" fill-rule="evenodd">
        <g id="appnav" transform="translate(0.000000, -1.000000)">
            <g id="App-Nav">
                <rect id="BG" fill="#802ABE" x="0" y="1" width="1440" height="36"></rect>
                <g id="Workspaces" transform="translate(386.000000, 1.000000)">
                    <path d="M6.74858824,17.0018824 L6.74858824,12.3744706 C6.74858824,12.1676471 6.58094118,12 6.37411765,12 L5.62588235,12 C5.41905882,12 5.25141176,12.1676471 5.25141176,12.3744706 L5.25141176,17.0018824 C5.25141176,17.1395294 5.13952941,17.2514118 5.00188235,17.2514118 L0.374470588,17.2514118 C0.167647059,17.2514118 -1.08801856e-14,17.4190588 -1.11022302e-14,17.6258824 L-1.04360964e-14,18.3741176 C-1.0658141e-14,18.5809412 0.167647059,18.7485882 0.374470588,18.7485882 L5.00188235,18.7485882 C5.13952941,18.7485882 5.25141176,18.8604706 5.25141176,18.9981176 L5.25141176,23.6255294 C5.25141176,23.8323529 5.41905882,24 5.62588235,24 L6.37411765,24 C6.58094118,24 6.74858824,23.8323529 6.74858824,23.6255294 L6.74858824,18.9981176 C6.74858824,18.8604706 6.86047059,18.7485882 6.99811765,18.7485882 L11.6255294,18.7485882 C11.8323529,18.7485882 12,18.5809412 12,18.3741176 L12,17.6258824 C12,17.4190588 11.8323529,17.2514118 11.6255294,17.2514118 L6.99811765,17.2514118 C6.86047059,17.2514118 6.74858824,17.1395294 6.74858824,17.0018824" id="add" fill="#FFFFFF"></path>
                    <g id="Riley-Shultz" transform="translate(3.000000, 15.000000)"></g>
                    <g id="Group-34" transform="translate(22.000000, 0.000000)">
                        <rect id="Rectangle-290" fill-opacity="0.2" fill="#000000" x="0" y="0" width="134" height="36"></rect>
                        <text id="00014723" font-family="SalesforceSans-Regular, Salesforce Sans" font-size="12" font-weight="normal" fill="#FFFFFF">
                            <tspan x="38" y="22">00014723</tspan>
                        </text>
                        <g id="Menu" transform="translate(11.000000, 7.000000)">
                            <use id="Rectangle-1225" stroke="#FFFFFF" mask="url(#mask-2)" stroke-width="2" opacity="0.521047108" xlink:href="#path-1"></use>
                            <text id="9:20:9:20-3" opacity="0.595965485" font-family="SSStandard, SS Standard" font-size="6" font-weight="normal" line-spacing="16" fill="#FFFFFF">
                                <tspan x="5" y="6">descend</tspan>
                            </text>
                        </g>
                        <path d="M118.006769,17.4903696 C118.006769,17.6402915 117.906639,17.7402395 117.756444,17.7402395 L115.002861,17.7402395 C114.877698,17.7402395 114.752535,17.8651744 114.752535,17.9901093 L114.752535,20.7386778 C114.752535,20.8636127 114.627372,20.9885476 114.50221,20.9885476 L113.500907,20.9885476 C113.350711,20.9885476 113.250581,20.8885997 113.250581,20.7386778 L113.250581,17.9901093 C113.250581,17.8401874 113.150451,17.7402395 113.000256,17.7402395 L110.246673,17.7402395 C110.096478,17.7402395 109.996347,17.6402915 109.996347,17.4903696 L109.996347,16.4908902 C109.996347,16.3659552 110.12151,16.2410203 110.246673,16.2410203 L113.000256,16.2410203 C113.150451,16.2410203 113.250581,16.1410724 113.250581,15.9911504 L113.250581,13.242582 C113.250581,13.1176471 113.375744,12.9927121 113.500907,12.9927121 L114.50221,12.9927121 C114.627372,12.9927121 114.752535,13.0926601 114.752535,13.242582 L114.752535,15.9911504 C114.752535,16.1410724 114.852666,16.2410203 115.002861,16.2410203 L117.756444,16.2410203 C117.881606,16.2410203 118.006769,16.3659552 118.006769,16.4908902 L118.006769,17.4903696 Z M118.257095,12.7428423 C115.904033,10.4190526 112.099083,10.4190526 109.746022,12.7428423 C107.417993,15.0916189 107.417993,18.8896408 109.746022,21.2384175 C112.099083,23.5871942 115.904033,23.5871942 118.232062,21.2384175 C120.585124,18.8896408 120.585124,15.0916189 118.257095,12.7428423 L118.257095,12.7428423 Z" id="New" fill="#FFFFFF" opacity="0.439598881" transform="translate(114.000000, 17.000000) rotate(-315.000000) translate(-114.000000, -17.000000) "></path>
                        <rect id="Rectangle-285" fill="#16325C" opacity="0.25" x="134" y="0" width="1" height="36"></rect>
                    </g>
                    <g id="Group-34" transform="translate(156.000000, 0.000000)">
                        <rect id="Rectangle-290" x="0" y="0" width="134" height="36"></rect>
                        <text id="00023118" font-family="SalesforceSans-Regular, Salesforce Sans" font-size="12" font-weight="normal" fill="#FFFFFF">
                            <tspan x="38" y="22">00023118</tspan>
                        </text>
                        <g id="Fill-840-+-Fill-841" transform="translate(16.000000, 13.000000)" fill="#FFFFFF">
                            <path d="M2.96394231,1.6875 L3.56971154,1.6875 C3.65330769,1.6875 3.72115385,1.6115625 3.72115385,1.51875 L3.72115385,1.0125 L5.84134615,1.0125 L5.84134615,1.51875 C5.84134615,1.6115625 5.90919231,1.6875 5.99278846,1.6875 L6.59855769,1.6875 C6.68215385,1.6875 6.75,1.6115625 6.75,1.51875 L6.75,1.0125 C6.75,0.4539375 6.34322596,0 5.84134615,0 L3.72115385,0 C3.21927404,0 2.8125,0.4539375 2.8125,1.0125 L2.8125,1.51875 C2.8125,1.6115625 2.88034615,1.6875 2.96394231,1.6875" id="Fill-840"></path>
                            <path d="M0.9,2.25 C0.4029,2.25 0,2.66267045 0,3.17045455 L0,8.07954545 C0,8.58732955 0.4029,9 0.9,9 L8.1,9 C8.5971,9 9,8.58732955 9,8.07954545 L9,3.17045455 C9,2.66267045 8.5971,2.25 8.1,2.25 L0.9,2.25 Z" id="Fill-841"></path>
                        </g>
                        <path d="M118.006769,17.4903696 C118.006769,17.6402915 117.906639,17.7402395 117.756444,17.7402395 L115.002861,17.7402395 C114.877698,17.7402395 114.752535,17.8651744 114.752535,17.9901093 L114.752535,20.7386778 C114.752535,20.8636127 114.627372,20.9885476 114.50221,20.9885476 L113.500907,20.9885476 C113.350711,20.9885476 113.250581,20.8885997 113.250581,20.7386778 L113.250581,17.9901093 C113.250581,17.8401874 113.150451,17.7402395 113.000256,17.7402395 L110.246673,17.7402395 C110.096478,17.7402395 109.996347,17.6402915 109.996347,17.4903696 L109.996347,16.4908902 C109.996347,16.3659552 110.12151,16.2410203 110.246673,16.2410203 L113.000256,16.2410203 C113.150451,16.2410203 113.250581,16.1410724 113.250581,15.9911504 L113.250581,13.242582 C113.250581,13.1176471 113.375744,12.9927121 113.500907,12.9927121 L114.50221,12.9927121 C114.627372,12.9927121 114.752535,13.0926601 114.752535,13.242582 L114.752535,15.9911504 C114.752535,16.1410724 114.852666,16.2410203 115.002861,16.2410203 L117.756444,16.2410203 C117.881606,16.2410203 118.006769,16.3659552 118.006769,16.4908902 L118.006769,17.4903696 Z M118.257095,12.7428423 C115.904033,10.4190526 112.099083,10.4190526 109.746022,12.7428423 C107.417993,15.0916189 107.417993,18.8896408 109.746022,21.2384175 C112.099083,23.5871942 115.904033,23.5871942 118.232062,21.2384175 C120.585124,18.8896408 120.585124,15.0916189 118.257095,12.7428423 L118.257095,12.7428423 Z" id="New" fill="#FFFFFF" opacity="0.439598881" transform="translate(114.000000, 17.000000) rotate(-315.000000) translate(-114.000000, -17.000000) "></path>
                        <rect id="Rectangle-285" fill="#16325C" opacity="0.25" x="134" y="0" width="1" height="36"></rect>
                    </g>
                    <g id="Group-34" transform="translate(292.000000, 0.000000)">
                        <rect id="Rectangle-290" x="0" y="0" width="134" height="36"></rect>
                        <text id="00014723" font-family="SalesforceSans-Regular, Salesforce Sans" font-size="12" font-weight="normal" fill="#FFFFFF">
                            <tspan x="38" y="22">00008251</tspan>
                        </text>
                        <g id="Fill-840-+-Fill-841" transform="translate(16.000000, 13.000000)" fill="#FFFFFF">
                            <path d="M2.96394231,1.6875 L3.56971154,1.6875 C3.65330769,1.6875 3.72115385,1.6115625 3.72115385,1.51875 L3.72115385,1.0125 L5.84134615,1.0125 L5.84134615,1.51875 C5.84134615,1.6115625 5.90919231,1.6875 5.99278846,1.6875 L6.59855769,1.6875 C6.68215385,1.6875 6.75,1.6115625 6.75,1.51875 L6.75,1.0125 C6.75,0.4539375 6.34322596,0 5.84134615,0 L3.72115385,0 C3.21927404,0 2.8125,0.4539375 2.8125,1.0125 L2.8125,1.51875 C2.8125,1.6115625 2.88034615,1.6875 2.96394231,1.6875" id="Fill-840"></path>
                            <path d="M0.9,2.25 C0.4029,2.25 0,2.66267045 0,3.17045455 L0,8.07954545 C0,8.58732955 0.4029,9 0.9,9 L8.1,9 C8.5971,9 9,8.58732955 9,8.07954545 L9,3.17045455 C9,2.66267045 8.5971,2.25 8.1,2.25 L0.9,2.25 Z" id="Fill-841"></path>
                        </g>
                        <path d="M118.006769,17.4903696 C118.006769,17.6402915 117.906639,17.7402395 117.756444,17.7402395 L115.002861,17.7402395 C114.877698,17.7402395 114.752535,17.8651744 114.752535,17.9901093 L114.752535,20.7386778 C114.752535,20.8636127 114.627372,20.9885476 114.50221,20.9885476 L113.500907,20.9885476 C113.350711,20.9885476 113.250581,20.8885997 113.250581,20.7386778 L113.250581,17.9901093 C113.250581,17.8401874 113.150451,17.7402395 113.000256,17.7402395 L110.246673,17.7402395 C110.096478,17.7402395 109.996347,17.6402915 109.996347,17.4903696 L109.996347,16.4908902 C109.996347,16.3659552 110.12151,16.2410203 110.246673,16.2410203 L113.000256,16.2410203 C113.150451,16.2410203 113.250581,16.1410724 113.250581,15.9911504 L113.250581,13.242582 C113.250581,13.1176471 113.375744,12.9927121 113.500907,12.9927121 L114.50221,12.9927121 C114.627372,12.9927121 114.752535,13.0926601 114.752535,13.242582 L114.752535,15.9911504 C114.752535,16.1410724 114.852666,16.2410203 115.002861,16.2410203 L117.756444,16.2410203 C117.881606,16.2410203 118.006769,16.3659552 118.006769,16.4908902 L118.006769,17.4903696 Z M118.257095,12.7428423 C115.904033,10.4190526 112.099083,10.4190526 109.746022,12.7428423 C107.417993,15.0916189 107.417993,18.8896408 109.746022,21.2384175 C112.099083,23.5871942 115.904033,23.5871942 118.232062,21.2384175 C120.585124,18.8896408 120.585124,15.0916189 118.257095,12.7428423 L118.257095,12.7428423 Z" id="New" fill="#FFFFFF" opacity="0.439598881" transform="translate(114.000000, 17.000000) rotate(-315.000000) translate(-114.000000, -17.000000) "></path>
                        <rect id="Rectangle-285" fill="#16325C" opacity="0.25" x="134" y="0" width="1" height="36"></rect>
                    </g>
                    <g id="Group-34" transform="translate(427.000000, 0.000000)">
                        <rect id="Rectangle-290" x="0" y="0" width="134" height="36"></rect>
                        <text id="00014723" font-family="SalesforceSans-Regular, Salesforce Sans" font-size="12" font-weight="normal" fill="#FFFFFF">
                            <tspan x="38" y="22">00984422</tspan>
                        </text>
                        <g id="Fill-840-+-Fill-841" transform="translate(16.000000, 13.000000)" fill="#FFFFFF">
                            <path d="M2.96394231,1.6875 L3.56971154,1.6875 C3.65330769,1.6875 3.72115385,1.6115625 3.72115385,1.51875 L3.72115385,1.0125 L5.84134615,1.0125 L5.84134615,1.51875 C5.84134615,1.6115625 5.90919231,1.6875 5.99278846,1.6875 L6.59855769,1.6875 C6.68215385,1.6875 6.75,1.6115625 6.75,1.51875 L6.75,1.0125 C6.75,0.4539375 6.34322596,0 5.84134615,0 L3.72115385,0 C3.21927404,0 2.8125,0.4539375 2.8125,1.0125 L2.8125,1.51875 C2.8125,1.6115625 2.88034615,1.6875 2.96394231,1.6875" id="Fill-840"></path>
                            <path d="M0.9,2.25 C0.4029,2.25 0,2.66267045 0,3.17045455 L0,8.07954545 C0,8.58732955 0.4029,9 0.9,9 L8.1,9 C8.5971,9 9,8.58732955 9,8.07954545 L9,3.17045455 C9,2.66267045 8.5971,2.25 8.1,2.25 L0.9,2.25 Z" id="Fill-841"></path>
                        </g>
                        <path d="M118.006769,17.4903696 C118.006769,17.6402915 117.906639,17.7402395 117.756444,17.7402395 L115.002861,17.7402395 C114.877698,17.7402395 114.752535,17.8651744 114.752535,17.9901093 L114.752535,20.7386778 C114.752535,20.8636127 114.627372,20.9885476 114.50221,20.9885476 L113.500907,20.9885476 C113.350711,20.9885476 113.250581,20.8885997 113.250581,20.7386778 L113.250581,17.9901093 C113.250581,17.8401874 113.150451,17.7402395 113.000256,17.7402395 L110.246673,17.7402395 C110.096478,17.7402395 109.996347,17.6402915 109.996347,17.4903696 L109.996347,16.4908902 C109.996347,16.3659552 110.12151,16.2410203 110.246673,16.2410203 L113.000256,16.2410203 C113.150451,16.2410203 113.250581,16.1410724 113.250581,15.9911504 L113.250581,13.242582 C113.250581,13.1176471 113.375744,12.9927121 113.500907,12.9927121 L114.50221,12.9927121 C114.627372,12.9927121 114.752535,13.0926601 114.752535,13.242582 L114.752535,15.9911504 C114.752535,16.1410724 114.852666,16.2410203 115.002861,16.2410203 L117.756444,16.2410203 C117.881606,16.2410203 118.006769,16.3659552 118.006769,16.4908902 L118.006769,17.4903696 Z M118.257095,12.7428423 C115.904033,10.4190526 112.099083,10.4190526 109.746022,12.7428423 C107.417993,15.0916189 107.417993,18.8896408 109.746022,21.2384175 C112.099083,23.5871942 115.904033,23.5871942 118.232062,21.2384175 C120.585124,18.8896408 120.585124,15.0916189 118.257095,12.7428423 L118.257095,12.7428423 Z" id="New" fill="#FFFFFF" opacity="0.439598881" transform="translate(114.000000, 17.000000) rotate(-315.000000) translate(-114.000000, -17.000000) "></path>
                        <rect id="Rectangle-285" fill="#16325C" opacity="0.25" x="134" y="0" width="1" height="36"></rect>
                    </g>
                </g>
                <g id="Object-Home" transform="translate(218.000000, 0.000000)" fill="#FFFFFF">
                    <path d="M116,0 L116,38" id="divider-copy"></path>
                    <text id="Cases" font-family="SalesforceSans-Regular, Salesforce Sans" font-size="14" font-weight="normal">
                        <tspan x="0" y="24">Cases</tspan>
                    </text>
                    <text id="9:20:9:20-3" font-family="SSStandard, SS Standard" font-size="8" font-weight="normal" line-spacing="16">
                        <tspan x="135" y="19">descend</tspan>
                    </text>
                </g>
                <rect id="Rectangle-285" fill="#16325C" opacity="0.25" x="373" y="1" width="1" height="36"></rect>
                <rect id="Rectangle-285-Copy" fill="#16325C" opacity="0.25" x="198" y="1" width="1" height="36"></rect>
                <rect id="Rectangle-285" fill="#16325C" opacity="0.25" x="340" y="1" width="1" height="36"></rect>
                <g id="App-title" transform="translate(51.000000, 10.000000)" font-size="14" font-family="SalesforceSans-Regular, Salesforce Sans" fill="#FFFFFF" font-weight="normal">
                    <text id="Service-Desk">
                        <tspan x="0" y="14">Service Desk</tspan>
                    </text>
                </g>
                <g id="Apps" transform="translate(24.000000, 11.000000)" fill="#FFFFFF">
                    <path d="M0,0.333333333 L0,3.66666667 C0,3.85185185 0.148148148,4 0.333333333,4 L3.66666667,4 C3.85185185,4 4,3.85185185 4,3.66666667 L4,0.333333333 C4,0.148148148 3.85185185,0 3.66666667,0 L0.333333333,0 C0.148148148,0 0,0.148148148 0,0.333333333 L0,0.333333333 Z M6,0.333333333 L6,3.66666667 C6,3.85185185 6.14814815,4 6.33333333,4 L9.66666667,4 C9.85185185,4 10,3.85185185 10,3.66666667 L10,0.333333333 C10,0.148148148 9.85185185,0 9.66666667,0 L6.33333333,0 C6.14814815,0 6,0.148148148 6,0.333333333 L6,0.333333333 Z M12,0.333333333 L12,3.66666667 C12,3.85185185 12.1481481,4 12.3333333,4 L15.6666667,4 C15.8518519,4 16,3.85185185 16,3.66666667 L16,0.333333333 C16,0.148148148 15.8518519,0 15.6666667,0 L12.3333333,0 C12.1481481,0 12,0.148148148 12,0.333333333 L12,0.333333333 Z M0,6.33333333 L0,9.66666667 C0,9.85185185 0.148148148,10 0.333333333,10 L3.66666667,10 C3.85185185,10 4,9.85185185 4,9.66666667 L4,6.33333333 C4,6.14814815 3.85185185,6 3.66666667,6 L0.333333333,6 C0.148148148,6 0,6.14814815 0,6.33333333 L0,6.33333333 Z M6,6.33333333 L6,9.66666667 C6,9.85185185 6.14814815,10 6.33333333,10 L9.66666667,10 C9.85185185,10 10,9.85185185 10,9.66666667 L10,6.33333333 C10,6.14814815 9.85185185,6 9.66666667,6 L6.33333333,6 C6.14814815,6 6,6.14814815 6,6.33333333 L6,6.33333333 Z M12,6.33333333 L12,9.66666667 C12,9.85185185 12.1481481,10 12.3333333,10 L15.6666667,10 C15.8518519,10 16,9.85185185 16,9.66666667 L16,6.33333333 C16,6.14814815 15.8518519,6 15.6666667,6 L12.3333333,6 C12.1481481,6 12,6.14814815 12,6.33333333 L12,6.33333333 Z M0,12.3333333 L0,15.6666667 C0,15.8518519 0.148148148,16 0.333333333,16 L3.66666667,16 C3.85185185,16 4,15.8518519 4,15.6666667 L4,12.3333333 C4,12.1481481 3.85185185,12 3.66666667,12 L0.333333333,12 C0.148148148,12 0,12.1481481 0,12.3333333 L0,12.3333333 Z M6,12.3333333 L6,15.6666667 C6,15.8518519 6.14814815,16 6.33333333,16 L9.66666667,16 C9.85185185,16 10,15.8518519 10,15.6666667 L10,12.3333333 C10,12.1481481 9.85185185,12 9.66666667,12 L6.33333333,12 C6.14814815,12 6,12.1481481 6,12.3333333 L6,12.3333333 Z M12,12.3333333 L12,15.6666667 C12,15.8518519 12.1481481,16 12.3333333,16 L15.6666667,16 C15.8518519,16 16,15.8518519 16,15.6666667 L16,12.3333333 C16,12.1481481 15.8518519,12 15.6666667,12 L12.3333333,12 C12.1481481,12 12,12.1481481 12,12.3333333 L12,12.3333333 Z" id="grid"></path>
                </g>
                <path d="M1396,17 C1397.1,17 1398,17.9 1398,19 C1398,20.1 1397.1,21 1396,21 C1394.9,21 1394,20.1 1394,19 C1394,17.9 1394.9,17 1396,17 M1390,17 C1391.1,17 1392,17.9 1392,19 C1392,20.1 1391.1,21 1390,21 C1388.9,21 1388,20.1 1388,19 C1388,17.9 1388.9,17 1390,17 M1384,17 C1385.1,17 1386,17.9 1386,19 C1386,20.1 1385.1,21 1384,21 C1382.9,21 1382,20.1 1382,19 C1382,17.9 1382.9,17 1384,17" id="Page-1" fill="#FFFFFF" transform="translate(1390.000000, 19.000000) rotate(-270.000000) translate(-1390.000000, -19.000000) "></path>
            </g>
        </g>
    </g>
</svg>