<?xml version="1.0" encoding="UTF-8" standalone="no"?>
<svg width="897px" height="36px" viewBox="0 0 897 36" version="1.1" xmlns="http://www.w3.org/2000/svg" xmlns:xlink="http://www.w3.org/1999/xlink">
    <!-- Generator: Sketch 3.8.3 (29802) - http://www.bohemiancoding.com/sketch -->
    <title>Group 6</title>
    <desc>Created with Sketch.</desc>
    <defs>
        <rect id="path-1" x="0" y="3" width="16" height="16" rx="2"></rect>
        <mask id="mask-2" maskContentUnits="userSpaceOnUse" maskUnits="objectBoundingBox" x="0" y="0" width="16" height="16" fill="white">
            <use xlink:href="#path-1"></use>
        </mask>
    </defs>
    <g id="Page-1" stroke="none" stroke-width="1" fill="none" fill-rule="evenodd">
        <g id="Workspaces" transform="translate(0.000000, -1.000000)">
            <g id="Group-6">
                <path d="M341.748588,18.0018824 L341.748588,13.3744706 C341.748588,13.1676471 341.580941,13 341.374118,13 L340.625882,13 C340.419059,13 340.251412,13.1676471 340.251412,13.3744706 L340.251412,18.0018824 C340.251412,18.1395294 340.139529,18.2514118 340.001882,18.2514118 L335.374471,18.2514118 C335.167647,18.2514118 335,18.4190588 335,18.6258824 L335,19.3741176 C335,19.5809412 335.167647,19.7485882 335.374471,19.7485882 L340.001882,19.7485882 C340.139529,19.7485882 340.251412,19.8604706 340.251412,19.9981176 L340.251412,24.6255294 C340.251412,24.8323529 340.419059,25 340.625882,25 L341.374118,25 C341.580941,25 341.748588,24.8323529 341.748588,24.6255294 L341.748588,19.9981176 C341.748588,19.8604706 341.860471,19.7485882 341.998118,19.7485882 L346.625529,19.7485882 C346.832353,19.7485882 347,19.5809412 347,19.3741176 L347,18.6258824 C347,18.4190588 346.832353,18.2514118 346.625529,18.2514118 L341.998118,18.2514118 C341.860471,18.2514118 341.748588,18.1395294 341.748588,18.0018824" id="add" fill="#FFFFFF"></path>
                <g id="Group-34" transform="translate(357.000000, 1.000000)">
                    <rect id="Rectangle-290" fill-opacity="0.2" fill="#000000" x="0" y="0" width="134" height="36"></rect>
                    <text id="00014723" font-family="SalesforceSans-Regular, Salesforce Sans" font-size="12" font-weight="normal" fill="#FFFFFF">
                        <tspan x="38" y="22">00014723</tspan>
                    </text>
                    <g id="Menu" transform="translate(11.000000, 7.000000)">
                        <use id="Rectangle-1225" stroke="#FFFFFF" mask="url(#mask-2)" stroke-width="2" opacity="0.521047108" xlink:href="#path-1"></use>
                        <text id="9:20:9:20-3" opacity="0.595965485" font-family="SSStandard, SS Standard" font-size="6" font-weight="normal" line-spacing="16" fill="#FFFFFF">
                            <tspan x="5" y="6">descend</tspan>
                        </text>
                    </g>
                    <path d="M118.006769,17.4903696 C118.006769,17.6402915 117.906639,17.7402395 117.756444,17.7402395 L115.002861,17.7402395 C114.877698,17.7402395 114.752535,17.8651744 114.752535,17.9901093 L114.752535,20.7386778 C114.752535,20.8636127 114.627372,20.9885476 114.50221,20.9885476 L113.500907,20.9885476 C113.350711,20.9885476 113.250581,20.8885997 113.250581,20.7386778 L113.250581,17.9901093 C113.250581,17.8401874 113.150451,17.7402395 113.000256,17.7402395 L110.246673,17.7402395 C110.096478,17.7402395 109.996347,17.6402915 109.996347,17.4903696 L109.996347,16.4908902 C109.996347,16.3659552 110.12151,16.2410203 110.246673,16.2410203 L113.000256,16.2410203 C113.150451,16.2410203 113.250581,16.1410724 113.250581,15.9911504 L113.250581,13.242582 C113.250581,13.1176471 113.375744,12.9927121 113.500907,12.9927121 L114.50221,12.9927121 C114.627372,12.9927121 114.752535,13.0926601 114.752535,13.242582 L114.752535,15.9911504 C114.752535,16.1410724 114.852666,16.2410203 115.002861,16.2410203 L117.756444,16.2410203 C117.881606,16.2410203 118.006769,16.3659552 118.006769,16.4908902 L118.006769,17.4903696 Z M118.257095,12.7428423 C115.904033,10.4190526 112.099083,10.4190526 109.746022,12.7428423 C107.417993,15.0916189 107.417993,18.8896408 109.746022,21.2384175 C112.099083,23.5871942 115.904033,23.5871942 118.232062,21.2384175 C120.585124,18.8896408 120.585124,15.0916189 118.257095,12.7428423 L118.257095,12.7428423 Z" id="New" fill="#FFFFFF" opacity="0.439598881" transform="translate(114.000000, 17.000000) rotate(-315.000000) translate(-114.000000, -17.000000) "></path>
                    <rect id="Rectangle-285" fill="#16325C" opacity="0.25" x="134" y="0" width="1" height="36"></rect>
                </g>
                <g id="Group-34" transform="translate(491.000000, 1.000000)">
                    <rect id="Rectangle-290" x="0" y="0" width="134" height="36"></rect>
                    <text id="00023118" font-family="SalesforceSans-Regular, Salesforce Sans" font-size="12" font-weight="normal" fill="#FFFFFF">
                        <tspan x="38" y="22">00023118</tspan>
                    </text>
                    <g id="Fill-840-+-Fill-841" transform="translate(16.000000, 13.000000)" fill="#FFFFFF">
                        <path d="M2.96394231,1.6875 L3.56971154,1.6875 C3.65330769,1.6875 3.72115385,1.6115625 3.72115385,1.51875 L3.72115385,1.0125 L5.84134615,1.0125 L5.84134615,1.51875 C5.84134615,1.6115625 5.90919231,1.6875 5.99278846,1.6875 L6.59855769,1.6875 C6.68215385,1.6875 6.75,1.6115625 6.75,1.51875 L6.75,1.0125 C6.75,0.4539375 6.34322596,0 5.84134615,0 L3.72115385,0 C3.21927404,0 2.8125,0.4539375 2.8125,1.0125 L2.8125,1.51875 C2.8125,1.6115625 2.88034615,1.6875 2.96394231,1.6875" id="Fill-840"></path>
                        <path d="M0.9,2.25 C0.4029,2.25 0,2.66267045 0,3.17045455 L0,8.07954545 C0,8.58732955 0.4029,9 0.9,9 L8.1,9 C8.5971,9 9,8.58732955 9,8.07954545 L9,3.17045455 C9,2.66267045 8.5971,2.25 8.1,2.25 L0.9,2.25 Z" id="Fill-841"></path>
                    </g>
                    <path d="M118.006769,17.4903696 C118.006769,17.6402915 117.906639,17.7402395 117.756444,17.7402395 L115.002861,17.7402395 C114.877698,17.7402395 114.752535,17.8651744 114.752535,17.9901093 L114.752535,20.7386778 C114.752535,20.8636127 114.627372,20.9885476 114.50221,20.9885476 L113.500907,20.9885476 C113.350711,20.9885476 113.250581,20.8885997 113.250581,20.7386778 L113.250581,17.9901093 C113.250581,17.8401874 113.150451,17.7402395 113.000256,17.7402395 L110.246673,17.7402395 C110.096478,17.7402395 109.996347,17.6402915 109.996347,17.4903696 L109.996347,16.4908902 C109.996347,16.3659552 110.12151,16.2410203 110.246673,16.2410203 L113.000256,16.2410203 C113.150451,16.2410203 113.250581,16.1410724 113.250581,15.9911504 L113.250581,13.242582 C113.250581,13.1176471 113.375744,12.9927121 113.500907,12.9927121 L114.50221,12.9927121 C114.627372,12.9927121 114.752535,13.0926601 114.752535,13.242582 L114.752535,15.9911504 C114.752535,16.1410724 114.852666,16.2410203 115.002861,16.2410203 L117.756444,16.2410203 C117.881606,16.2410203 118.006769,16.3659552 118.006769,16.4908902 L118.006769,17.4903696 Z M118.257095,12.7428423 C115.904033,10.4190526 112.099083,10.4190526 109.746022,12.7428423 C107.417993,15.0916189 107.417993,18.8896408 109.746022,21.2384175 C112.099083,23.5871942 115.904033,23.5871942 118.232062,21.2384175 C120.585124,18.8896408 120.585124,15.0916189 118.257095,12.7428423 L118.257095,12.7428423 Z" id="New" fill="#FFFFFF" opacity="0.439598881" transform="translate(114.000000, 17.000000) rotate(-315.000000) translate(-114.000000, -17.000000) "></path>
                    <rect id="Rectangle-285" fill="#16325C" opacity="0.25" x="134" y="0" width="1" height="36"></rect>
                </g>
                <g id="Group-34" transform="translate(627.000000, 1.000000)">
                    <rect id="Rectangle-290" x="0" y="0" width="134" height="36"></rect>
                    <text id="00014723" font-family="SalesforceSans-Regular, Salesforce Sans" font-size="12" font-weight="normal" fill="#FFFFFF">
                        <tspan x="38" y="22">00008251</tspan>
                    </text>
                    <g id="Fill-840-+-Fill-841" transform="translate(16.000000, 13.000000)" fill="#FFFFFF">
                        <path d="M2.96394231,1.6875 L3.56971154,1.6875 C3.65330769,1.6875 3.72115385,1.6115625 3.72115385,1.51875 L3.72115385,1.0125 L5.84134615,1.0125 L5.84134615,1.51875 C5.84134615,1.6115625 5.90919231,1.6875 5.99278846,1.6875 L6.59855769,1.6875 C6.68215385,1.6875 6.75,1.6115625 6.75,1.51875 L6.75,1.0125 C6.75,0.4539375 6.34322596,0 5.84134615,0 L3.72115385,0 C3.21927404,0 2.8125,0.4539375 2.8125,1.0125 L2.8125,1.51875 C2.8125,1.6115625 2.88034615,1.6875 2.96394231,1.6875" id="Fill-840"></path>
                        <path d="M0.9,2.25 C0.4029,2.25 0,2.66267045 0,3.17045455 L0,8.07954545 C0,8.58732955 0.4029,9 0.9,9 L8.1,9 C8.5971,9 9,8.58732955 9,8.07954545 L9,3.17045455 C9,2.66267045 8.5971,2.25 8.1,2.25 L0.9,2.25 Z" id="Fill-841"></path>
                    </g>
                    <path d="M118.006769,17.4903696 C118.006769,17.6402915 117.906639,17.7402395 117.756444,17.7402395 L115.002861,17.7402395 C114.877698,17.7402395 114.752535,17.8651744 114.752535,17.9901093 L114.752535,20.7386778 C114.752535,20.8636127 114.627372,20.9885476 114.50221,20.9885476 L113.500907,20.9885476 C113.350711,20.9885476 113.250581,20.8885997 113.250581,20.7386778 L113.250581,17.9901093 C113.250581,17.8401874 113.150451,17.7402395 113.000256,17.7402395 L110.246673,17.7402395 C110.096478,17.7402395 109.996347,17.6402915 109.996347,17.4903696 L109.996347,16.4908902 C109.996347,16.3659552 110.12151,16.2410203 110.246673,16.2410203 L113.000256,16.2410203 C113.150451,16.2410203 113.250581,16.1410724 113.250581,15.9911504 L113.250581,13.242582 C113.250581,13.1176471 113.375744,12.9927121 113.500907,12.9927121 L114.50221,12.9927121 C114.627372,12.9927121 114.752535,13.0926601 114.752535,13.242582 L114.752535,15.9911504 C114.752535,16.1410724 114.852666,16.2410203 115.002861,16.2410203 L117.756444,16.2410203 C117.881606,16.2410203 118.006769,16.3659552 118.006769,16.4908902 L118.006769,17.4903696 Z M118.257095,12.7428423 C115.904033,10.4190526 112.099083,10.4190526 109.746022,12.7428423 C107.417993,15.0916189 107.417993,18.8896408 109.746022,21.2384175 C112.099083,23.5871942 115.904033,23.5871942 118.232062,21.2384175 C120.585124,18.8896408 120.585124,15.0916189 118.257095,12.7428423 L118.257095,12.7428423 Z" id="New" fill="#FFFFFF" opacity="0.439598881" transform="translate(114.000000, 17.000000) rotate(-315.000000) translate(-114.000000, -17.000000) "></path>
                    <rect id="Rectangle-285" fill="#16325C" opacity="0.25" x="134" y="0" width="1" height="36"></rect>
                </g>
                <g id="Group-34" transform="translate(762.000000, 1.000000)">
                    <rect id="Rectangle-290" x="0" y="0" width="134" height="36"></rect>
                    <text id="00014723" font-family="SalesforceSans-Regular, Salesforce Sans" font-size="12" font-weight="normal" fill="#FFFFFF">
                        <tspan x="38" y="22">00984422</tspan>
                    </text>
                    <g id="Fill-840-+-Fill-841" transform="translate(16.000000, 13.000000)" fill="#FFFFFF">
                        <path d="M2.96394231,1.6875 L3.56971154,1.6875 C3.65330769,1.6875 3.72115385,1.6115625 3.72115385,1.51875 L3.72115385,1.0125 L5.84134615,1.0125 L5.84134615,1.51875 C5.84134615,1.6115625 5.90919231,1.6875 5.99278846,1.6875 L6.59855769,1.6875 C6.68215385,1.6875 6.75,1.6115625 6.75,1.51875 L6.75,1.0125 C6.75,0.4539375 6.34322596,0 5.84134615,0 L3.72115385,0 C3.21927404,0 2.8125,0.4539375 2.8125,1.0125 L2.8125,1.51875 C2.8125,1.6115625 2.88034615,1.6875 2.96394231,1.6875" id="Fill-840"></path>
                        <path d="M0.9,2.25 C0.4029,2.25 0,2.66267045 0,3.17045455 L0,8.07954545 C0,8.58732955 0.4029,9 0.9,9 L8.1,9 C8.5971,9 9,8.58732955 9,8.07954545 L9,3.17045455 C9,2.66267045 8.5971,2.25 8.1,2.25 L0.9,2.25 Z" id="Fill-841"></path>
                    </g>
                    <path d="M118.006769,17.4903696 C118.006769,17.6402915 117.906639,17.7402395 117.756444,17.7402395 L115.002861,17.7402395 C114.877698,17.7402395 114.752535,17.8651744 114.752535,17.9901093 L114.752535,20.7386778 C114.752535,20.8636127 114.627372,20.9885476 114.50221,20.9885476 L113.500907,20.9885476 C113.350711,20.9885476 113.250581,20.8885997 113.250581,20.7386778 L113.250581,17.9901093 C113.250581,17.8401874 113.150451,17.7402395 113.000256,17.7402395 L110.246673,17.7402395 C110.096478,17.7402395 109.996347,17.6402915 109.996347,17.4903696 L109.996347,16.4908902 C109.996347,16.3659552 110.12151,16.2410203 110.246673,16.2410203 L113.000256,16.2410203 C113.150451,16.2410203 113.250581,16.1410724 113.250581,15.9911504 L113.250581,13.242582 C113.250581,13.1176471 113.375744,12.9927121 113.500907,12.9927121 L114.50221,12.9927121 C114.627372,12.9927121 114.752535,13.0926601 114.752535,13.242582 L114.752535,15.9911504 C114.752535,16.1410724 114.852666,16.2410203 115.002861,16.2410203 L117.756444,16.2410203 C117.881606,16.2410203 118.006769,16.3659552 118.006769,16.4908902 L118.006769,17.4903696 Z M118.257095,12.7428423 C115.904033,10.4190526 112.099083,10.4190526 109.746022,12.7428423 C107.417993,15.0916189 107.417993,18.8896408 109.746022,21.2384175 C112.099083,23.5871942 115.904033,23.5871942 118.232062,21.2384175 C120.585124,18.8896408 120.585124,15.0916189 118.257095,12.7428423 L118.257095,12.7428423 Z" id="New" fill="#FFFFFF" opacity="0.439598881" transform="translate(114.000000, 17.000000) rotate(-315.000000) translate(-114.000000, -17.000000) "></path>
                    <rect id="Rectangle-285" fill="#16325C" opacity="0.25" x="134" y="0" width="1" height="36"></rect>
                </g>
                <g id="Object-Home" transform="translate(167.000000, 0.000000)" fill="#FFFFFF">
                    <path d="M116,0 L116,38" id="divider-copy"></path>
                    <text id="Cases" font-family="SalesforceSans-Regular, Salesforce Sans" font-size="14" font-weight="normal">
                        <tspan x="0" y="24">Cases</tspan>
                    </text>
                    <text id="9:20:9:20-3" font-family="SSStandard, SS Standard" font-size="8" font-weight="normal" line-spacing="16">
                        <tspan x="135" y="19">descend</tspan>
                    </text>
                </g>
                <rect id="Rectangle-285" fill="#16325C" opacity="0.25" x="322" y="1" width="1" height="36"></rect>
                <rect id="Rectangle-285-Copy" fill="#16325C" opacity="0.25" x="147" y="1" width="1" height="36"></rect>
                <rect id="Rectangle-285" fill="#16325C" opacity="0.25" x="289" y="1" width="1" height="36"></rect>
                <g id="App-title" transform="translate(0.000000, 10.000000)" font-size="14" font-family="SalesforceSans-Regular, Salesforce Sans" fill="#FFFFFF" font-weight="normal">
                    <text id="Service-Desk">
                        <tspan x="0" y="14">Service Desk</tspan>
                    </text>
                </g>
            </g>
        </g>
    </g>
</svg>