<?xml version="1.0" encoding="UTF-8" standalone="no"?>
<svg width="16px" height="13px" viewBox="0 0 16 13" version="1.1" xmlns="http://www.w3.org/2000/svg" xmlns:xlink="http://www.w3.org/1999/xlink">
    <!-- Generator: Sketch 3.8.3 (29802) - http://www.bohemiancoding.com/sketch -->
    <title>Shape</title>
    <desc>Created with Sketch.</desc>
    <defs></defs>
    <g id="Page-1" stroke="none" stroke-width="1" fill="none" fill-rule="evenodd">
        <g id="appnav" transform="translate(-145.000000, -35.000000)" fill="#FFFFFF">
            <g id="App-Nav">
                <g id="Apps" transform="translate(24.000000, 0.000000)">
                    <path d="M136.532847,40.3555787 L125.45464,40.3555787 C125.154327,40.3555787 125.020855,39.9885297 125.221064,39.7883212 L128.4244,36.5849844 C128.624609,36.3847758 128.624609,36.084463 128.4244,35.8842544 L127.690302,35.1501564 C127.490094,34.9499479 127.189781,34.9499479 126.989572,35.1501564 L121.150156,41.0229406 C120.949948,41.2231491 120.949948,41.5234619 121.150156,41.7236705 L126.989572,47.5630865 C127.189781,47.7632951 127.490094,47.7632951 127.690302,47.5630865 L128.391032,46.8623566 C128.591241,46.6621481 128.591241,46.3618352 128.391032,46.1616267 L125.187696,42.9582899 C124.987487,42.7247132 125.120959,42.3576642 125.421272,42.3576642 L136.499479,42.3576642 C136.766423,42.3576642 137,42.1574557 137,41.8905109 L137,40.8894682 C137,40.6225235 136.799791,40.3555787 136.532847,40.3555787 L136.532847,40.3555787 Z" id="Shape"></path>
                </g>
            </g>
        </g>
    </g>
</svg>