<?xml version="1.0" encoding="UTF-8" standalone="no"?>
<svg width="17px" height="17px" viewBox="0 0 17 17" version="1.1" xmlns="http://www.w3.org/2000/svg" xmlns:xlink="http://www.w3.org/1999/xlink">
    <!-- Generator: Sketch 3.8.3 (29802) - http://www.bohemiancoding.com/sketch -->
    <title>Shape</title>
    <desc>Created with Sketch.</desc>
    <defs></defs>
    <g id="Page-1" stroke="none" stroke-width="1" fill="none" fill-rule="evenodd">
        <path d="M10.7180217,8.2898374 L16.354878,2.6096206 C16.6150407,2.34945799 16.6150407,1.95921409 16.354878,1.69905149 L15.4876694,0.788482385 C15.2275068,0.528319783 14.8372629,0.528319783 14.5771003,0.788482385 L8.89688347,6.46869919 C8.72344173,6.64214092 8.46327913,6.64214092 8.2898374,6.46869919 L2.6096206,0.745121951 C2.34945799,0.48495935 1.95921409,0.48495935 1.69905149,0.745121951 L0.788482385,1.65569106 C0.528319783,1.91585366 0.528319783,2.30609756 0.788482385,2.56626016 L6.46869919,8.24647696 C6.64214092,8.4199187 6.64214092,8.6800813 6.46869919,8.85352304 L0.745121951,14.5771003 C0.48495935,14.8372629 0.48495935,15.2275068 0.745121951,15.4876694 L1.65569106,16.3982385 C1.91585366,16.6584011 2.30609756,16.6584011 2.56626016,16.3982385 L8.24647696,10.7180217 C8.4199187,10.5445799 8.6800813,10.5445799 8.85352304,10.7180217 L14.5337398,16.3982385 C14.7939024,16.6584011 15.1841463,16.6584011 15.4443089,16.3982385 L16.354878,15.4876694 C16.6150407,15.2275068 16.6150407,14.8372629 16.354878,14.5771003 L10.7180217,8.89688347 C10.5445799,8.72344173 10.5445799,8.46327913 10.7180217,8.2898374 L10.7180217,8.2898374 Z" id="Shape" fill="#FFFFFF"></path>
    </g>
</svg>