<?xml version="1.0" encoding="UTF-8" standalone="no"?>
<svg width="20px" height="20px" viewBox="0 0 20 20" version="1.1" xmlns="http://www.w3.org/2000/svg" xmlns:xlink="http://www.w3.org/1999/xlink">
    <!-- Generator: Sketch 3.8.3 (29802) - http://www.bohemiancoding.com/sketch -->
    <title>Group</title>
    <desc>Created with Sketch.</desc>
    <defs></defs>
    <g id="Page-1" stroke="none" stroke-width="1" fill="none" fill-rule="evenodd">
        <g id="Group">
            <circle id="Oval-1" fill="#9FAAB6" cx="10" cy="10" r="10"></circle>
            <path d="M11.1038961,10.7922078 L16.2467532,10.7922078 C16.4961039,10.7922078 16.7142857,10.574026 16.7142857,10.3246753 L16.7142857,9.38961039 C16.7142857,9.14025974 16.4961039,8.92207792 16.2467532,8.92207792 L11.1038961,8.92207792 C10.9168831,8.92207792 10.7922078,8.7974026 10.7922078,8.61038961 L10.7922078,3.46753247 C10.7922078,3.21818182 10.574026,3 10.3246753,3 L9.38961039,3 C9.14025974,3 8.92207792,3.21818182 8.92207792,3.46753247 L8.92207792,8.61038961 C8.92207792,8.7974026 8.7974026,8.92207792 8.61038961,8.92207792 L3.46753247,8.92207792 C3.21818182,8.92207792 3,9.14025974 3,9.38961039 L3,10.3246753 C3,10.574026 3.21818182,10.7922078 3.46753247,10.7922078 L8.61038961,10.7922078 C8.7974026,10.7922078 8.92207792,10.9168831 8.92207792,11.1038961 L8.92207792,16.2467532 C8.92207792,16.4961039 9.14025974,16.7142857 9.38961039,16.7142857 L10.3246753,16.7142857 C10.574026,16.7142857 10.7922078,16.4961039 10.7922078,16.2467532 L10.7922078,11.1038961 C10.7922078,10.9168831 10.9168831,10.7922078 11.1038961,10.7922078 L11.1038961,10.7922078 Z" id="Shape" fill="#FFFFFF"></path>
        </g>
    </g>
</svg>