<?xml version="1.0" encoding="UTF-8" standalone="no"?>
<svg width="20px" height="20px" viewBox="0 0 20 20" version="1.1" xmlns="http://www.w3.org/2000/svg" xmlns:xlink="http://www.w3.org/1999/xlink">
    <!-- Generator: Sketch 3.8.3 (29802) - http://www.bohemiancoding.com/sketch -->
    <title>Group 2</title>
    <desc>Created with Sketch.</desc>
    <defs></defs>
    <g id="Page-1" stroke="none" stroke-width="1" fill="none" fill-rule="evenodd">
        <g id="Group-2">
            <circle id="Oval-2" fill="#9FAAB6" cx="10" cy="10" r="10"></circle>
            <path d="M10.41969,3.32154709 L11.7627077,7.40899224 C11.8210998,7.58416846 11.996276,7.67175657 12.1714522,7.67175657 L16.5508578,7.67175657 C16.9887983,7.67175657 17.1639745,8.2556773 16.8136221,8.51844163 L13.2517056,11.1460849 C13.1057254,11.2628691 13.0473333,11.4672413 13.1057254,11.6424176 L14.5071352,15.8466469 C14.6239193,16.2553914 14.1859788,16.6057438 13.8356263,16.3429795 L10.3029059,13.7737282 C10.1569257,13.6569441 9.95255345,13.6569441 9.77737723,13.7737282 L6.21546074,16.3429795 C5.8651083,16.6057438 5.39797172,16.2553914 5.5439519,15.8466469 L6.88696959,11.6424176 C6.94536166,11.4672413 6.88696959,11.2628691 6.74098941,11.1460849 L3.17907292,8.51844163 C2.82872048,8.2556773 3.03309274,7.67175657 3.44183725,7.67175657 L7.82124277,7.67175657 C8.02561502,7.67175657 8.17159521,7.61336449 8.22998728,7.40899224 L9.60220101,3.29235105 C9.71898515,2.88360654 10.3029059,2.91280258 10.41969,3.32154709 L10.41969,3.32154709 Z" id="Shape" fill="#FFFFFF"></path>
        </g>
    </g>
</svg>