<?xml version="1.0" encoding="UTF-8" standalone="no"?>
<svg width="20px" height="20px" viewBox="0 0 20 20" version="1.1" xmlns="http://www.w3.org/2000/svg" xmlns:xlink="http://www.w3.org/1999/xlink">
    <!-- Generator: Sketch 3.8.3 (29802) - http://www.bohemiancoding.com/sketch -->
    <title>Group 3</title>
    <desc>Created with Sketch.</desc>
    <defs></defs>
    <g id="Page-1" stroke="none" stroke-width="1" fill="none" fill-rule="evenodd">
        <g id="Group-3">
            <circle id="Oval-3" fill="#9FAAB6" cx="10" cy="10" r="10"></circle>
            <path d="M10.5163978,13.8777437 L9.00996955,13.8777437 C8.76894102,13.8777437 8.58816963,13.6969723 8.58816963,13.4559438 L8.58816963,13.0040153 C8.58816963,11.7386156 9.4016409,10.5937301 10.6067835,10.1719301 C10.9683263,10.0514159 11.2997405,9.84051592 11.5708976,9.53923026 C13.0773259,7.73151632 11.6914119,5.56225959 9.88369795,5.50200246 C9.22086951,5.4718739 8.58816963,5.71290242 8.10611258,6.16483091 C7.71444123,6.52637369 7.4734127,6.97830218 7.41315557,7.4904878 C7.383027,7.67125919 7.20225561,7.82190202 6.96122708,7.82190202 L5.4547988,7.82190202 C5.18364171,7.82190202 4.97274175,7.61100206 5.00287032,7.33984497 C5.12338458,6.19495947 5.63557019,5.17058824 6.44904147,4.35711697 C7.41315557,3.45326 8.64842676,2.97120294 9.97408365,3.00133151 C12.4747546,3.09171721 14.5234971,5.14045967 14.6138828,7.64113062 C14.7042685,9.75013022 13.4087401,11.6482299 11.4503834,12.3713154 C11.1792263,12.4918297 10.9984549,12.7027297 10.9984549,12.9738867 L10.9984549,13.4258152 C10.9984549,13.6969723 10.7574264,13.8777437 10.5163978,13.8777437 L10.5163978,13.8777437 Z M10.9984549,17.0412431 C10.9984549,17.2822716 10.7875549,17.4931716 10.5465264,17.4931716 L9.04009812,17.4931716 C8.79906959,17.4931716 8.58816963,17.2822716 8.58816963,17.0412431 L8.58816963,15.5348148 C8.58816963,15.2937863 8.79906959,15.0828863 9.04009812,15.0828863 L10.5465264,15.0828863 C10.7875549,15.0828863 10.9984549,15.2937863 10.9984549,15.5348148 L10.9984549,17.0412431 L10.9984549,17.0412431 Z" id="Shape" fill="#FFFFFF"></path>
        </g>
    </g>
</svg>