<?xml version="1.0" encoding="UTF-8" standalone="no"?>
<svg width="32px" height="32px" viewBox="0 0 32 32" version="1.1" xmlns="http://www.w3.org/2000/svg" xmlns:xlink="http://www.w3.org/1999/xlink">
    <!-- Generator: Sketch 3.8.3 (29802) - http://www.bohemiancoding.com/sketch -->
    <title>Group 7</title>
    <desc>Created with Sketch.</desc>
    <defs></defs>
    <g id="Page-1" stroke="none" stroke-width="1" fill="none" fill-rule="evenodd">
        <g id="Group-7">
            <g id="setupmenu_global-copy">
                <rect id="Rectangle-44-Copy" fill="#45C173" x="0" y="0" width="32" height="32" rx="2"></rect>
                <g id="Fill-1-+-Fill-2" transform="translate(5.333333, 5.333333)" fill="#FFFFFF">
                    <path d="M10.6666667,7.75757576 C9.06251082,7.75757576 7.75757576,9.06251082 7.75757576,10.6666667 C7.75757576,12.2708225 9.06251082,13.5757576 10.6666667,13.5757576 C12.2704069,13.5757576 13.5757576,12.2708225 13.5757576,10.6666667 C13.5757576,9.06251082 12.2704069,7.75757576 10.6666667,7.75757576" id="Fill-1"></path>
                    <path d="M20.7436398,13.4586667 L18.9609076,12.0951111 C19.0654358,11.6 19.1186588,11.0853333 19.1186588,10.568 C19.1186588,10.0506667 19.0654358,9.53644444 18.9599487,9.04 L20.7570654,7.668 C21.3545061,7.21111111 21.5079419,6.42755556 21.1205165,5.80044444 L20.3471042,4.56177778 C20.0642069,4.11333333 19.5367714,3.83822222 18.9709769,3.83822222 C18.7815795,3.83822222 18.5955386,3.87511111 18.4224439,3.936 L16.2350248,4.70844444 C15.3820177,4.01911111 14.4216055,3.52977778 13.3825574,3.20577778 L13.0008859,1.12311111 C12.8709449,0.413333333 12.2140479,0 11.4367997,0 L9.89716739,0 C9.12039866,0 8.46350166,0.413333333 8.33356072,1.12577778 L7.95284814,3.15466667 C6.91284113,3.47911111 5.95242894,3.99333333 5.0994218,4.68311111 L2.90768733,3.92266667 C2.7336336,3.86222222 2.55046962,3.832 2.36251076,3.832 C1.79767523,3.832 1.27023968,4.11111111 0.984465509,4.56355556 L0.212012166,5.80266667 C-0.174933735,6.42711111 -0.0200594771,7.21244444 0.577381159,7.66666667 L2.37305947,9.04088889 C2.26901082,9.536 2.2153083,10.0506667 2.2153083,10.568 C2.2153083,11.0853333 2.26901082,11.6 2.37449794,12.096 L0.577381159,13.4684444 C-0.0200594771,13.9253333 -0.173974761,14.7097778 0.213930114,15.3368889 L0.985903969,16.5733333 C1.26688327,17.0235556 1.79575729,17.304 2.36203128,17.304 C2.54855167,17.304 2.73123616,17.2728889 2.91200271,17.212 L5.0994218,16.452 C5.95242894,17.1417778 6.91284113,17.6555556 7.95188917,17.9795556 L8.33356072,20.1111111 C8.46350166,20.8208889 9.12039866,21.3333333 9.89716739,21.3333333 L11.4367997,21.3333333 C12.2140479,21.3333333 12.8709449,20.8208889 13.0008859,20.1084444 L13.3825574,17.9808889 C14.4772259,17.6337778 15.5028483,17.0715556 16.3515401,16.3555556 L18.4262798,17.1062222 C18.6089643,17.172 18.8012385,17.2053333 18.9968691,17.2053333 C19.5559508,17.2053333 20.0795505,16.9311111 20.3658042,16.4875556 L21.0984601,15.3426667 C21.5012291,14.7133333 21.3511497,13.9208889 20.7436398,13.4586667 L20.7436398,13.4586667 Z M10.6844848,15.5555556 C7.77639698,15.5555556 5.41012929,13.3622222 5.41012929,10.6666667 C5.41012929,7.97111111 7.77639698,5.77777778 10.6844848,5.77777778 C13.5925727,5.77777778 15.9588404,7.97111111 15.9588404,10.6666667 C15.9588404,13.3622222 13.5925727,15.5555556 10.6844848,15.5555556 L10.6844848,15.5555556 Z" id="Fill-2"></path>
                </g>
            </g>
        </g>
    </g>
</svg>