<?xml version="1.0" encoding="UTF-8" standalone="no"?>
<svg width="20px" height="20px" viewBox="0 0 20 20" version="1.1" xmlns="http://www.w3.org/2000/svg" xmlns:xlink="http://www.w3.org/1999/xlink">
    <!-- Generator: Sketch 3.8.3 (29802) - http://www.bohemiancoding.com/sketch -->
    <title>Shape</title>
    <desc>Created with Sketch.</desc>
    <defs></defs>
    <g id="Page-1" stroke="none" stroke-width="1" fill="none" fill-rule="evenodd">
        <path d="M18.3273428,12.9189812 L18.1190776,12.9189812 C17.3276696,12.9189812 16.6612207,12.2525324 16.6612207,11.4611244 L16.6612207,6.6710234 C16.6612207,2.88059568 13.4955888,-0.160077103 9.66350803,0.00653510483 C6.08134557,0.173147312 3.33224415,3.25547315 3.33224415,6.87928866 L3.33224415,11.5027774 C3.33224415,12.2941854 2.66579532,12.9189812 1.87438733,12.9189812 L1.66612207,12.9189812 C0.749754934,12.9189812 0,13.7103892 0,14.6267563 L0,15.2515521 C0,15.5431235 0.291571363,15.8346948 0.624795778,15.8346948 L19.3686691,15.8346948 C19.7018935,15.8346948 19.9934649,15.5431235 19.9934649,15.209899 L19.9934649,14.5851033 C19.9934649,13.6687361 19.24371,12.9189812 18.3273428,12.9189812 L18.3273428,12.9189812 Z M12.037732,17.5008169 L7.95573291,17.5008169 C7.7058146,17.5008169 7.49754934,17.7507352 7.53920239,18.0006535 C7.74746765,19.166939 8.78879394,20 9.99673245,20 C11.204671,20 12.2459972,19.1252859 12.4542625,18.0006535 C12.4959156,17.7507352 12.2876503,17.5008169 12.037732,17.5008169 L12.037732,17.5008169 Z" id="Shape" fill="#9FAAB6"></path>
    </g>
</svg>