<?xml version="1.0" encoding="UTF-8" standalone="no"?>
<svg width="16px" height="16px" viewBox="0 0 16 16" version="1.1" xmlns="http://www.w3.org/2000/svg" xmlns:xlink="http://www.w3.org/1999/xlink">
    <!-- Generator: Sketch 3.8.3 (29802) - http://www.bohemiancoding.com/sketch -->
    <title>Shape</title>
    <desc>Created with Sketch.</desc>
    <defs></defs>
    <g id="Page-1" stroke="none" stroke-width="1" fill="none" fill-rule="evenodd">
        <path d="M15.8808596,14.44638 L11.4105867,10.0094674 C12.3113134,8.7417781 12.7783568,7.14048634 12.5448351,5.43911384 C12.1445121,2.57013275 9.80929497,0.301636085 6.90695364,0.0347541242 C2.97044471,-0.365568817 -0.3655798,2.9704557 0.0347431419,6.94032487 C0.301625103,9.80930595 2.57012177,12.1778834 5.43910285,12.5782063 C7.14047536,12.811728 8.74176712,12.3446846 10.0094564,11.443958 L14.446369,15.8808706 C14.6465305,16.081032 14.9467727,16.081032 15.1469342,15.8808706 L15.8474993,15.1803054 C16.0476608,14.9801439 16.0476608,14.6465415 15.8808596,14.44638 L15.8808596,14.44638 Z M2.0029976,6.30648021 C2.0029976,3.93790281 3.93789182,2.00300859 6.30646923,2.00300859 C8.67504663,2.00300859 10.6099408,3.93790281 10.6099408,6.30648021 C10.6099408,8.67505761 8.67504663,10.6099518 6.30646923,10.6099518 C3.93789182,10.6099518 2.0029976,8.70841786 2.0029976,6.30648021 L2.0029976,6.30648021 Z" id="Shape" fill="#9FAAB5"></path>
    </g>
</svg>