<?xml version="1.0" encoding="UTF-8" standalone="no"?>
<svg width="24px" height="24px" viewBox="0 0 24 24" version="1.1" xmlns="http://www.w3.org/2000/svg" xmlns:xlink="http://www.w3.org/1999/xlink">
    <!-- Generator: Sketch 3.8.3 (29802) - http://www.bohemiancoding.com/sketch -->
    <title>setupmenu_global</title>
    <desc>Created with Sketch.</desc>
    <defs></defs>
    <g id="Page-1" stroke="none" stroke-width="1" fill="none" fill-rule="evenodd">
        <g id="setupmenu_global">
            <rect id="Rectangle-44-Copy" fill="#00396B" x="0" y="0" width="24" height="24" rx="2"></rect>
            <g id="Fill-1-+-Fill-2" transform="translate(4.000000, 4.000000)" fill="#FFFFFF">
                <path d="M8,5.81818182 C6.79688312,5.81818182 5.81818182,6.79688312 5.81818182,8 C5.81818182,9.20311688 6.79688312,10.1818182 8,10.1818182 C9.20280519,10.1818182 10.1818182,9.20311688 10.1818182,8 C10.1818182,6.79688312 9.20280519,5.81818182 8,5.81818182" id="Fill-1"></path>
                <path d="M15.5577299,10.094 L14.2206807,9.07133333 C14.2990768,8.7 14.3389941,8.314 14.3389941,7.926 C14.3389941,7.538 14.2990768,7.15233333 14.2199615,6.78 L15.5677991,5.751 C16.0158796,5.40833333 16.1309564,4.82066667 15.8403874,4.35033333 L15.2603281,3.42133333 C15.0481552,3.085 14.6525785,2.87866667 14.2282326,2.87866667 C14.0861847,2.87866667 13.946654,2.90633333 13.8168329,2.952 L12.1762686,3.53133333 C11.5365132,3.01433333 10.8162041,2.64733333 10.0369181,2.40433333 L9.75066441,0.842333333 C9.6532087,0.31 9.16053595,0 8.57759979,0 L7.42287554,0 C6.840299,0 6.34762624,0.31 6.25017054,0.844333333 L5.96463611,2.366 C5.18463085,2.60933333 4.4643217,2.995 3.82456635,3.51233333 L2.1807655,2.942 C2.0502252,2.89666667 1.91285221,2.874 1.77188307,2.874 C1.34825643,2.874 0.952679761,3.08333333 0.738349132,3.42266667 L0.159009125,4.352 C-0.131200301,4.82033333 -0.0150446078,5.40933333 0.433035869,5.75 L1.77979461,6.78066667 C1.70175812,7.152 1.66148122,7.538 1.66148122,7.926 C1.66148122,8.314 1.70175812,8.7 1.78087345,9.072 L0.433035869,10.1013333 C-0.0150446078,10.444 -0.130481071,11.0323333 0.160447585,11.5026667 L0.739427977,12.43 C0.950162455,12.7676667 1.34681797,12.978 1.77152346,12.978 C1.91141375,12.978 2.04842712,12.9546667 2.18400203,12.909 L3.82456635,12.339 C4.4643217,12.8563333 5.18463085,13.2416667 5.96391688,13.4846667 L6.25017054,15.0833333 C6.34762624,15.6156667 6.840299,16 7.42287554,16 L8.57759979,16 C9.16053595,16 9.6532087,15.6156667 9.75066441,15.0813333 L10.0369181,13.4856667 C10.8579195,13.2253333 11.6271363,12.8036667 12.2636551,12.2666667 L13.8197098,12.8296667 C13.9567232,12.879 14.1009289,12.904 14.2476519,12.904 C14.6669631,12.904 15.0596629,12.6983333 15.2743531,12.3656667 L15.8238451,11.507 C16.1259218,11.035 16.0133622,10.4406667 15.5577299,10.094 L15.5577299,10.094 Z M8.01336362,11.6666667 C5.83229773,11.6666667 4.05759697,10.0216667 4.05759697,8 C4.05759697,5.97833333 5.83229773,4.33333333 8.01336362,4.33333333 C10.1944295,4.33333333 11.9691303,5.97833333 11.9691303,8 C11.9691303,10.0216667 10.1944295,11.6666667 8.01336362,11.6666667 L8.01336362,11.6666667 Z" id="Fill-2"></path>
            </g>
        </g>
    </g>
</svg>