<?xml version="1.0" encoding="UTF-8" standalone="no"?>
<svg width="19px" height="20px" viewBox="0 0 19 20" version="1.1" xmlns="http://www.w3.org/2000/svg" xmlns:xlink="http://www.w3.org/1999/xlink">
    <!-- Generator: Sketch 3.8.3 (29802) - http://www.bohemiancoding.com/sketch -->
    <title>Group 4</title>
    <desc>Created with Sketch.</desc>
    <defs></defs>
    <g id="Page-1" stroke="none" stroke-width="1" fill="none" fill-rule="evenodd">
        <g id="Group-4">
            <path d="M17.8505397,12.6666667 L16.3088731,11.375 C16.3922064,10.9166667 16.4338731,10.4166667 16.4338731,9.95833333 C16.4338731,9.5 16.3922064,9 16.3088731,8.54166667 L17.8505397,7.25 C18.3505397,6.83333333 18.5172064,6.08333333 18.1838731,5.5 L17.5172064,4.29166667 C17.2672064,3.875 16.8088731,3.625 16.3088731,3.625 C16.1422064,3.625 15.9755397,3.66666667 15.8505397,3.70833333 L13.9755397,4.41666667 C13.2255397,3.75 12.3922064,3.29166667 11.5588731,3 L11.2255397,1.04166667 C11.1005397,0.375 10.5172064,0 9.85053974,0 L8.5172064,0 C7.85053974,0 7.2672064,0.375 7.1422064,1.04166667 L6.80887307,2.95833333 C5.8922064,3.25 5.10053974,3.75 4.35053974,4.375 L2.5172064,3.66666667 C2.35053974,3.625 2.22553974,3.58333333 2.05887307,3.58333333 C1.55887307,3.58333333 1.10053974,3.83333333 0.850539737,4.25 L0.18387307,5.41666667 C-0.149460263,6 -0.0244602634,6.75 0.517206403,7.16666667 L2.05887307,8.45833333 C1.97553974,8.91666667 1.93387307,9.41666667 1.93387307,9.875 C1.93387307,10.375 1.97553974,10.8333333 2.05887307,11.2916667 L0.517206403,12.5833333 C0.0172064033,13 -0.149460263,13.75 0.18387307,14.3333333 L0.850539737,15.5833333 C1.10053974,16 1.55887307,16.25 2.05887307,16.25 C2.22553974,16.25 2.3922064,16.2083333 2.5172064,16.1666667 L4.3922064,15.4583333 C5.1422064,16.125 5.97553974,16.5833333 6.80887307,16.875 L7.1422064,18.875 C7.2672064,19.5416667 7.80887307,20 8.5172064,20 L9.85053974,20 C10.5172064,20 11.1005397,19.5 11.2255397,18.8333333 L11.5588731,16.8333333 C12.5172064,16.5 13.3505397,16 14.1005397,15.2916667 L15.8505397,16 C16.0172064,16.0416667 16.1838731,16.0833333 16.3505397,16.0833333 C16.8505397,16.0833333 17.3088731,15.8333333 17.5588731,15.4166667 L18.1838731,14.3333333 C18.5172064,13.8333333 18.3505397,13.0833333 17.8505397,12.6666667 L17.8505397,12.6666667 Z M9.22553974,14.625 C6.72553974,14.625 4.68387307,12.5833333 4.68387307,10.0416667 C4.68387307,7.5 6.68387307,5.45833333 9.22553974,5.45833333 C11.7672064,5.45833333 13.7672064,7.5 13.7672064,10.0416667 C13.7672064,12.5833333 11.7255397,14.625 9.22553974,14.625 L9.22553974,14.625 Z M10.4338731,6.66666667 L8.5172064,6.66666667 C8.22553974,6.66666667 7.97553974,6.83333333 7.8922064,7.08333333 L6.72553974,10.0833333 C6.6422064,10.2916667 6.80887307,10.5416667 7.05887307,10.5416667 L9.0172064,10.5416667 L8.30887307,13.0416667 C8.22553974,13.2916667 8.5172064,13.4166667 8.68387307,13.25 L11.6422064,9.79166667 C11.8505397,9.58333333 11.6838731,9.25 11.3922064,9.25 L9.93387307,9.25 L11.2255397,7.20833333 C11.3505397,7 11.1838731,6.70833333 10.9338731,6.70833333 L10.4338731,6.70833333 L10.4338731,6.66666667 Z" id="Shape-Copy" fill="#13315D"></path>
            <path d="M10.4338731,6.66666667 L8.5172064,6.66666667 C8.22553974,6.66666667 7.97553974,6.83333333 7.8922064,7.08333333 L6.72553974,10.0833333 C6.6422064,10.2916667 6.80887307,10.5416667 7.05887307,10.5416667 L9.0172064,10.5416667 L8.30887307,13.0416667 C8.22553974,13.2916667 8.5172064,13.4166667 8.68387307,13.25 L11.6422064,9.79166667 C11.8505397,9.58333333 11.6838731,9.25 11.3922064,9.25 L9.93387307,9.25 L11.2255397,7.20833333 C11.3505397,7 11.1838731,6.70833333 10.9338731,6.70833333 L10.4338731,6.70833333 L10.4338731,6.66666667 Z" id="Path" fill="#5EB3E7"></path>
        </g>
    </g>
</svg>